PathFileType	4	(X/Y/Z)	E:\Qualisys_Data\Carbon_Farble_Plate\Data\Amateur_Runner\S14\T1\S14T1V21_c3d.trc
DataRate	CameraRate	NumFrames	NumMarkers	Units	OrigDataRate	OrigDataStartFrame	OrigNumFrames
200.000000	200.000000	5	39	mm	200.000000	191	306
Frame#	Time	LSHO			RSHO			LICST			RICST			LASIS			LHEEL			RASIS			LTROC			RTROC			SACR			LTH1			LSK4			LTH2			LTH3			RHM5			LSK2			LTH4			RTH1			LTOE			RTH2			RTH3			RTH4			LLEP			RLEP			LSK1			LSK3			RSK1			LHM5			RSK2			LFT1			RSK3			RSK4			LLME			RLME			RTOE			RHEEL			RFT1			RFT2			LFT2			
		X1	Y1	Z1	X2	Y2	Z2	X3	Y3	Z3	X4	Y4	Z4	X5	Y5	Z5	X6	Y6	Z6	X7	Y7	Z7	X8	Y8	Z8	X9	Y9	Z9	X10	Y10	Z10	X11	Y11	Z11	X12	Y12	Z12	X13	Y13	Z13	X14	Y14	Z14	X15	Y15	Z15	X16	Y16	Z16	X17	Y17	Z17	X18	Y18	Z18	X19	Y19	Z19	X20	Y20	Z20	X21	Y21	Z21	X22	Y22	Z22	X23	Y23	Z23	X24	Y24	Z24	X25	Y25	Z25	X26	Y26	Z26	X27	Y27	Z27	X28	Y28	Z28	X29	Y29	Z29	X30	Y30	Z30	X31	Y31	Z31	X32	Y32	Z32	X33	Y33	Z33	X34	Y34	Z34	X35	Y35	Z35	X36	Y36	Z36	X37	Y37	Z37	X38	Y38	Z38	X39	Y39	Z39	

192	0.955	894.4071044921875	1413.83984375	-491.0258483886719	982.72900390625	1396.251953125	-203.2908477783203	885.8765869140625	958.427490234375	-478.271240234375	921.0995483398438	954.25244140625	-202.3366546630859	927.3485107421876	908.3633422851562	-451.8745422363281	720.5932006835938	399.5689086914062	-380.2432250976562	942.9226684570312	910.9076538085938	-220.6701507568359	799.55859375	842.5099487304688	-498.3326110839844	791.5985107421875	868.0167236328125	-172.8433074951172	764.5026245117188	967.0579223632812	-335.3276672363281	1019.450439453125	697.6812744140625	-502.5280151367188	910.0625	491.5447387695312	-460.1119384765625	964.3555297851562	645.2953491210938	-484.2358703613281	1093.23779296875	632.25732421875	-483.2913208007812	620.0375366210938	56.73669815063477	-215.2179412841797	993.7532958984376	540.7916259765625	-477.9056396484375	1034.642822265625	579.13037109375	-465.0227661132812	882.023193359375	612.2819213867188	-181.4390106201172	876.2320556640625	192.4048309326172	-406.2768859863281	806.6935424804688	631.0608520507812	-172.1642303466797	860.25244140625	518.8624267578125	-214.6662292480469	780.0350341796875	534.7847900390625	-195.8978271484375	1101.9892578125	560.7571411132812	-478.1312866210938	782.068115234375	459.4479370117188	-208.4430236816406	1039.1005859375	470.6364135742188	-466.2771301269531	950.3948364257812	422.1942138671875	-450.9288330078125	740.8082275390625	338.3768310546875	-210.2230834960938	825.445068359375	239.0041809082031	-465.8507690429688	671.0460205078125	386.564208984375	-198.2536773681641	705.44775390625	376.06591796875	-356.092041015625	674.4138793945312	259.7454223632812	-226.0447998046875	614.2901611328125	309.8261413574219	-212.3531188964844	783.850830078125	373.4864501953125	-437.8833618164062	529.5785522460938	153.6309509277344	-238.195556640625	686.143310546875	45.83555603027344	-282.5708312988281	459.8575744628906	148.3706665039062	-289.7555236816406	463.5647888183594	117.5245361328125	-319.4785766601562	454.2174682617188	126.6501235961914	-262.1442565917969	703.7026977539062	382.65185546875	-409.171630859375
193	0.96	912.4439697265624	1419.503784179688	-491.4796752929688	1002.548950195312	1401.987548828125	-205.3323669433594	907.0681762695312	963.988525390625	-478.8282165527344	943.0491943359376	958.0657348632812	-203.2361602783203	948.8486938476562	914.5919799804688	-452.4120483398438	751.453125	389.5088806152344	-380.8213500976562	965.030517578125	915.406005859375	-221.8944854736328	822.2523193359375	848.597412109375	-499.4763488769531	813.3380737304688	872.2968139648438	-172.2608795166016	786.1561279296875	971.1868286132812	-335.1831970214844	1043.445678710938	704.7857666015625	-502.0672302246094	937.2281494140624	489.9396362304688	-459.4795532226562	988.5267944335938	651.5071411132812	-485.121826171875	1117.259643554688	639.45361328125	-482.3525085449219	622.1168212890625	57.69368743896484	-214.5003051757812	1018.881530761719	543.2351684570312	-477.0719909667969	1058.872924804688	585.5924072265625	-465.7777404785156	897.1372680664062	616.4192504882812	-183.1816558837891	916.8311157226562	189.8596649169922	-406.169921875	822.6375732421875	637.2191772460938	-172.0965728759766	872.4020385742188	523.3486328125	-216.5043640136719	792.5675659179688	541.2431030273438	-196.0798645019531	1126.839477539062	567.9592895507812	-477.4173889160156	792.3203735351562	465.52099609375	-208.2628784179688	1066.039672851562	476.2879333496094	-468.0899658203125	980.4515991210938	422.1934814453125	-450.6914978027344	749.3779907226562	345.5328369140625	-209.4581756591797	863.9920043945312	233.7678375244141	-465.850830078125	679.5934448242188	394.1253967285156	-197.9174041748047	742.069091796875	362.7039489746094	-354.3756713867188	681.9706420898438	267.1075439453125	-224.8479766845703	622.51025390625	317.5322875976562	-211.8697204589844	816.0446166992188	366.917236328125	-438.4151916503906	537.2723388671875	160.6943206787109	-237.3280181884766	687.8837890625	45.37970352172852	-281.8257141113281	468.1062316894531	158.1497955322266	-288.9854125976562	471.0560607910156	127.730598449707	-318.8767395019531	461.5253601074219	136.2194213867188	-261.3262329101562	735.4721069335938	371.4745788574219	-408.2388000488281
194	0.965	930.4818115234376	1424.845458984375	-491.7555847167969	1022.676208496094	1407.532836914062	-207.0329284667969	927.6727294921876	970.0110473632812	-478.9151306152344	965.04296875	962.0162963867188	-204.3369293212891	970.1126708984376	920.4762573242188	-453.0078430175781	784.6600341796875	379.6448364257812	-379.2328491210938	986.9537963867188	919.6864013671876	-222.8507995605469	844.2435913085938	854.8027954101562	-501.5944213867188	834.6534423828125	876.8912963867188	-171.3013153076172	807.4805297851562	975.1173095703124	-335.2229919433594	1067.132202148438	711.6581420898438	-501.85498046875	964.4000244140624	488.0560913085938	-459.2530517578125	1012.412780761719	657.7457275390625	-486.0554809570312	1141.396240234375	646.6085205078125	-481.5230102539062	625.3018188476562	58.68672561645508	-213.3650054931641	1043.59814453125	545.223388671875	-476.4695434570312	1083.144409179688	592.211669921875	-466.3506469726562	912.7504272460938	620.8707275390625	-183.5070495605469	957.3707275390624	187.3882446289062	-406.6093139648438	838.2984619140625	642.4630737304688	-172.4287109375	884.7304077148438	527.92578125	-218.1365051269531	806.2825927734375	548.0296020507812	-195.6646728515625	1151.097412109375	574.5469970703125	-476.5738220214844	803.2682495117188	471.8832092285156	-208.5504302978516	1093.918823242188	479.9445190429688	-468.2725524902344	1010.39111328125	422.4997253417969	-450.6048889160156	758.38916015625	352.8285522460938	-208.6401824951172	902.4148559570312	228.9346771240234	-466.1364440917969	688.766845703125	401.8617858886719	-197.7796478271484	773.8366088867188	352.0800476074219	-354.2780456542969	690.80029296875	274.3872680664062	-223.6030120849609	631.169921875	325.2440795898438	-211.2718048095703	848.5721435546875	359.0387268066406	-437.7715759277344	545.7153930664062	168.3717041015625	-236.3951416015625	690.017333984375	45.21272659301758	-280.6805419921875	477.0114135742188	168.2993927001953	-288.3075866699219	478.7195434570312	138.1074371337891	-318.4319152832031	469.8466186523438	147.180419921875	-260.4093627929688	767.3338623046875	360.9132385253906	-408.741943359375
195	0.97	948.9414672851562	1430.296142578125	-492.3683471679688	1042.292846679688	1413.035888671875	-208.9737243652344	948.9951171875	975.7935791015624	-479.6210632324219	987.100341796875	966.50390625	-205.1711578369141	991.5145874023438	926.7018432617188	-453.9942932128906	814.6070556640625	367.7758483886719	-380.0872192382812	1008.955017089844	923.7901000976562	-223.9958190917969	866.6467895507812	860.4924926757812	-502.4683227539062	856.3803100585938	881.701416015625	-170.9901275634766	829.0374755859375	979.1047973632812	-335.1759643554688	1090.744750976562	717.952392578125	-501.8558044433594	991.225830078125	485.7307434082031	-458.7872619628906	1035.949951171875	663.6476440429688	-486.7377624511719	1164.701904296875	653.0848999023438	-480.8705444335938	629.6143798828125	60.72080612182617	-211.7219543457031	1068.211791992188	546.3751831054688	-475.859130859375	1106.599487304688	598.252197265625	-467.1881103515625	927.7777709960938	624.811279296875	-185.7086791992188	997.8358764648438	185.0369262695312	-406.8502502441406	854.6907958984375	648.4208374023438	-172.7222900390625	897.80419921875	533.2191772460938	-219.2863006591797	819.7327880859375	554.6771240234375	-195.4740905761719	1175.050537109375	581.2042846679688	-475.6621398925781	815.0462036132812	478.6215515136719	-208.2321472167969	1120.748168945312	482.9911804199219	-468.1919860839844	1040.051879882812	422.3807983398438	-451.501708984375	767.5128784179688	359.9478759765625	-207.9725494384766	940.6026611328124	224.0896453857422	-466.2485046386719	698.4288940429688	409.7850341796875	-197.2769927978516	807.6607666015625	340.6634521484375	-354.1188049316406	700.25732421875	281.6641540527344	-222.2275085449219	640.6853637695312	333.1093139648438	-210.6630859375	881.2392578125	351.7831420898438	-438.0478515625	554.9481201171875	175.8929595947266	-235.8419799804688	692.4535522460938	44.83671951293945	-279.3672485351562	489.1090393066406	179.6490783691406	-287.6417846679688	487.6991577148438	148.4651794433594	-317.631591796875	479.0606384277344	157.8772277832031	-260.3116149902344	800.3934326171875	348.8706359863281	-407.445068359375
196	0.975	967.1796875	1435.688842773438	-493.0166625976562	1062.305786132812	1418.35009765625	-211.0421752929688	969.6981811523438	981.3779296875	-479.7690734863281	1008.994323730469	970.3135986328124	-206.1321563720703	1012.932556152344	932.5243530273438	-454.8309020996094	846.9935913085938	357.1724548339844	-379.6000366210938	1030.726318359375	927.669921875	-225.3476409912109	888.7694702148438	865.5801391601562	-503.8653564453125	877.3422241210938	886.0421752929688	-170.6945953369141	850.5162353515625	983.3717041015624	-334.9786376953125	1113.835693359375	723.9619140625	-501.96630859375	1018.861389160156	483.4409790039062	-458.5345764160156	1059.374755859375	669.2978515625	-487.9145812988281	1187.992797851562	659.1973266601562	-480.6629638671875	632.0011596679688	61.20392608642578	-211.8950653076172	1092.088745117188	547.0684204101562	-475.3327941894531	1130.069458007812	604.2342529296875	-468.76904296875	943.4788818359376	629.3052978515625	-186.5746459960938	1038.066772460938	182.6634826660156	-407.4116516113281	870.8018798828125	654.5597534179688	-172.7527160644531	911.0643310546876	538.2901611328125	-219.8026123046875	833.9608764648438	561.6336669921875	-195.378173828125	1197.788818359375	586.6903686523438	-475.4752807617188	827.1576538085938	486.0296936035156	-207.5885925292969	1147.6083984375	486.1626281738281	-468.1741943359375	1069.896118164062	421.2657470703125	-451.5896606445312	777.6846923828125	367.8928833007812	-206.5141906738281	978.8905639648438	219.0478820800781	-466.3576354980469	708.3338012695312	417.9436645507812	-196.9843444824219	840.6224365234375	328.8912048339844	-353.8580932617188	710.726318359375	289.983642578125	-220.5477294921875	650.7047119140625	341.1527404785156	-210.2995452880859	913.8148803710938	343.4835815429688	-437.5354614257812	566.286865234375	182.6425933837891	-234.9968566894531	694.9198608398438	44.03083801269531	-277.9439392089844	500.8616943359375	190.4170989990234	-286.97998046875	498.058349609375	159.5847778320312	-317.25048828125	489.6325378417969	169.4786529541016	-259.7051086425781	832.8875732421875	337.7156677246094	-407.3012084960938
